<?xml version="1.0" encoding="UTF-8"?>
<svg data-bbox="68.2 67.3 964.1 141.5" viewBox="0 0 1100 272.3" xmlns="http://www.w3.org/2000/svg" data-type="shape">
    <g>
        <path d="M314.2 99.4c-6.8-3.8-14.3-5.7-22.7-5.7h-32.7v87.4h32.7c8.3 0 15.9-1.9 22.7-5.7 6.8-3.8 12.1-9.1 16-15.7 3.9-6.7 5.8-14.1 5.8-22.2 0-8.2-1.9-15.6-5.8-22.2-3.9-6.8-9.2-12-16-15.9zm3.6 54c-2.7 4.8-6.4 8.5-11.2 11.2-4.7 2.7-10.1 4.1-16.1 4.1h-18V106h18c6 0 11.4 1.4 16.1 4.1 4.7 2.7 8.5 6.5 11.2 11.2 2.7 4.8 4.1 10.1 4.1 16 0 6-1.4 11.3-4.1 16.1z"/>
        <path d="M352.3 90.8c-2.2 0-4.2.8-5.8 2.4-1.6 1.6-2.4 3.5-2.4 5.7s.8 4.2 2.4 5.7c1.6 1.6 3.6 2.4 5.8 2.4 2.2 0 4.2-.8 5.7-2.4 1.6-1.6 2.4-3.5 2.4-5.7s-.8-4.2-2.4-5.7c-1.5-1.6-3.4-2.4-5.7-2.4z"/>
        <path d="M358.8 117.3v63.8h-13.1v-63.8h13.1z"/>
        <path d="M422.7 126.5c-2-2.5-4.4-4.6-7.1-6.3-4.6-2.8-9.8-4.2-15.6-4.2-5.8 0-11.2 1.4-16 4.3-4.8 2.9-8.6 6.8-11.4 11.7-2.7 5-4.1 10.5-4.1 16.5s1.4 11.5 4.1 16.4c2.7 5 6.5 8.8 11.4 11.7 4.8 2.8 10.2 4.2 16 4.2 5.8 0 11-1.4 15.6-4.2 2.7-1.7 5.1-3.8 7.1-6.2v3.7c0 4-.9 7.6-2.8 10.8-1.9 3.2-4.4 5.7-7.5 7.6-3.1 1.8-6.6 2.7-10.4 2.7-4.1 0-7.7-1.1-10.9-3.2s-5.6-5-7.4-8.7l-11.7 5.9c2.7 5.4 6.7 9.8 12 13 5.2 3.3 11.2 4.9 18 4.9 6.3 0 12-1.5 17.2-4.4 5.1-2.9 9.2-6.9 12.2-11.9s4.5-10.6 4.5-16.8v-56.9h-13.1v9.4zm-2.7 32.4c-1.8 3.1-4.2 5.6-7.3 7.4-3.1 1.8-6.5 2.7-10.4 2.7-3.8 0-7.3-.9-10.4-2.7-3.1-1.8-5.5-4.2-7.3-7.4-1.8-3.1-2.7-6.6-2.7-10.4 0-3.7.9-7.2 2.7-10.3 1.8-3.1 4.2-5.6 7.3-7.4 3.1-1.8 6.5-2.7 10.4-2.7 3.8 0 7.3.9 10.4 2.6 3.1 1.7 5.5 4.2 7.3 7.3 1.8 3.1 2.7 6.6 2.7 10.4 0 3.9-.9 7.4-2.7 10.5z"/>
        <path d="M454.7 90.8c-2.2 0-4.2.8-5.8 2.4-1.6 1.6-2.4 3.5-2.4 5.7s.8 4.2 2.4 5.7c1.6 1.6 3.6 2.4 5.8 2.4 2.2 0 4.2-.8 5.7-2.4 1.6-1.6 2.4-3.5 2.4-5.7s-.8-4.2-2.4-5.7c-1.6-1.6-3.5-2.4-5.7-2.4z"/>
        <path d="M461.2 117.3v63.8h-13.1v-63.8h13.1z"/>
        <path d="m495.1 96.5-13.1.1v20.7h-13.6v11.6H482v28.8c0 7.9 2 13.8 5.9 17.6 4 3.8 10 5.7 18.2 5.7h7v-11.6h-7c-3.9 0-6.7-.9-8.4-2.6-1.7-1.7-2.6-4.6-2.6-8.5v-29.5h18v-11.6h-18V96.5z"/>
        <path d="M567.3 122.1c-4.8-4-11-6.1-18.8-6.1-4.9 0-9.3.8-13.3 2.4-4 1.6-7.2 3.9-9.8 6.9-2.6 3-4.2 6.4-5 10.3l13 3.1c.8-3.9 2.6-6.8 5.2-8.8 2.7-2 5.9-2.9 9.9-2.9 3.8 0 6.9.9 9.3 2.7 2.4 1.8 3.6 4.3 3.6 7.4 0 2-.6 3.5-1.7 4.4-1.2 1-2.9 1.6-5.2 1.8l-12.4 1.4c-6.8.7-12.4 2.6-16.9 5.7-4.4 3.1-6.6 7.8-6.6 14 0 3.6.9 6.7 2.6 9.4 1.7 2.7 4.2 4.8 7.3 6.2 3.1 1.5 6.7 2.2 10.7 2.2 5.1 0 9.7-1.1 13.7-3.4 3.4-1.9 6.2-4.4 8.5-7.4v9.5h13.1v-41.8c0-7.2-2.4-13-7.2-17zm-15.4 47.1c-3 1.7-6.2 2.6-9.8 2.6-3.2 0-5.7-.7-7.6-2.2-1.9-1.5-2.8-3.5-2.8-6.1 0-2.5.9-4.5 2.8-5.9 1.9-1.5 4.4-2.4 7.6-2.8l12.1-1.5c2.6-.2 4.5-.6 5.7-1.2.6-.2 1.1-.6 1.5-1v2.5c0 3.1-.9 6-2.6 8.8-1.7 2.8-4 5-6.9 6.8z"/>
        <path d="M599.2 93.7v87.4h-13.1V93.7h13.1z"/>
        <path d="M611.5 181.1h13.7v-36.2h38.4v-12.3h-38.4v-26.5h39.7V93.7h-53.4v87.4z"/>
        <path d="M716.1 122.1c-4.8-4-11-6.1-18.8-6.1-4.9 0-9.3.8-13.3 2.4-4 1.6-7.2 3.9-9.8 6.9-2.6 3-4.2 6.4-5 10.3l13 3.1c.8-3.9 2.6-6.8 5.2-8.8 2.7-2 5.9-2.9 9.9-2.9 3.8 0 6.9.9 9.3 2.7 2.4 1.8 3.6 4.3 3.6 7.4 0 2-.6 3.5-1.7 4.4-1.2 1-2.9 1.6-5.2 1.8l-12.4 1.4c-6.8.7-12.4 2.6-16.9 5.7-4.4 3.1-6.6 7.8-6.6 14 0 3.6.9 6.7 2.6 9.4 1.7 2.7 4.2 4.8 7.3 6.2 3.1 1.5 6.7 2.2 10.7 2.2 5.1 0 9.7-1.1 13.7-3.4 3.4-1.9 6.2-4.4 8.5-7.4v9.5h13.1v-41.8c0-7.2-2.4-13-7.2-17zm-15.4 47.1c-3 1.7-6.2 2.6-9.8 2.6-3.2 0-5.7-.7-7.6-2.2-1.9-1.5-2.8-3.5-2.8-6.1 0-2.5.9-4.5 2.8-5.9 1.9-1.5 4.4-2.4 7.6-2.8l12.1-1.5c2.6-.2 4.5-.6 5.7-1.2.6-.2 1.1-.6 1.5-1v2.5c0 3.1-.9 6-2.6 8.8-1.7 2.8-4 5-6.9 6.8z"/>
        <path d="M755.9 130.9c3.1-1.8 6.5-2.7 10.4-2.7 4.2 0 7.9 1.1 11.1 3.2 3.2 2.2 5.7 5.1 7.5 8.9l12-4.1c-2.7-6.2-6.7-11.1-12.1-14.7-5.4-3.6-11.6-5.4-18.5-5.4-6.3 0-12.1 1.5-17.2 4.4-5.2 2.9-9.2 6.9-12.2 12s-4.4 10.7-4.4 16.9c0 6.2 1.5 11.8 4.4 16.8 3 5 7 9 12.2 11.9 5.2 2.9 10.9 4.4 17.2 4.4 6.9 0 13.1-1.8 18.5-5.4 5.4-3.6 9.4-8.5 12.1-14.7l-12-4.1c-1.7 3.7-4.2 6.7-7.5 8.9-3.2 2.2-6.9 3.3-11.1 3.3-3.8 0-7.3-.9-10.4-2.7-3.1-1.8-5.5-4.4-7.3-7.6-1.8-3.2-2.7-6.8-2.7-10.7 0-4 .9-7.6 2.7-10.8 1.8-3.5 4.2-6 7.3-7.8z"/>
        <path d="m824.6 96.5-13.1.1v20.7h-13.6v11.6h13.6v28.8c0 7.9 2 13.8 5.9 17.6 4 3.8 10 5.7 18.2 5.7h7v-11.6h-7c-3.9 0-6.7-.9-8.4-2.6-1.7-1.7-2.6-4.6-2.6-8.5v-29.5h18v-11.6h-18V96.5z"/>
        <path d="M898.1 120.4c-5.2-2.9-10.9-4.4-17.2-4.4-6.3 0-12.1 1.5-17.2 4.4-5.2 2.9-9.2 6.9-12.2 12s-4.4 10.7-4.4 16.9c0 6.2 1.5 11.8 4.4 16.8 3 5 7 9 12.2 11.9 5.2 2.9 10.9 4.4 17.2 4.4 6.3 0 12.1-1.5 17.2-4.4 5.2-2.9 9.2-6.9 12.2-11.9s4.4-10.6 4.4-16.8c0-6.2-1.5-11.8-4.4-16.9-3-5.1-7.1-9.1-12.2-12zm.4 39.6c-1.8 3.2-4.2 5.8-7.3 7.6-3.1 1.8-6.5 2.7-10.4 2.7-3.8 0-7.3-.9-10.4-2.7-3.1-1.8-5.5-4.4-7.3-7.6-1.8-3.2-2.7-6.8-2.7-10.7 0-3.9.9-7.5 2.7-10.7 1.8-3.2 4.2-5.8 7.3-7.6 3.1-1.8 6.5-2.7 10.4-2.7 3.8 0 7.3.9 10.4 2.7 3.1 1.8 5.5 4.4 7.3 7.6 1.8 3.2 2.7 6.8 2.7 10.7 0 3.9-.9 7.4-2.7 10.7z"/>
        <path d="M951.4 116.7c-3.5.9-6.7 2.5-9.4 4.9-1.7 1.5-3.2 3.2-4.5 5v-9.3h-13.1v63.8h13.1V145c0-4 1.1-7.4 3.3-10.3 2.2-2.9 5.2-4.8 9-5.8s8-.9 12.5.4v-12.5c-3.7-.9-7.3-.9-10.9-.1z"/>
        <path d="m1019 117.3-19.7 50.9-19.8-50.9h-14.1l26.7 65.4-9.6 23.3h13.4l36.4-88.7H1019z"/>
        <path d="M68.2 143.8v65c18 0 32.5-14.6 32.5-32.5s-14.5-32.5-32.5-32.5z"/>
        <path d="M188.7 105.5v27.1H68.2v-27.1h120.5z"/>
        <path d="M188.7 67.3v27.1H68.2V67.3h120.5z"/>
    </g>
</svg>
